<svg xmlns="http://www.w3.org/2000/svg" width="256" height="256" viewBox="0 0 100 100"><path fill="#fabe5b" d="M73.10 37.26L73.10 37.26Q69.47 37.26 68.04 33.81L68.04 33.81Q62.77 33.81 56.47 36.38L56.47 36.38Q52.55 37.99 51.20 39.34Q49.84 40.70 49.75 41.47Q49.66 42.24 50.50 42.77Q51.34 43.30 52.86 43.77Q54.38 44.25 56.40 44.73L56.40 44.73Q66.94 47.18 69.76 48.13L69.76 48.13Q75.37 50 78.15 52.23L78.15 52.23Q80.79 54.47 80.79 58.31L80.79 58.31Q80.79 61.50 78.83 63.70Q76.87 65.89 73.65 67.61Q70.42 69.34 66.45 70.67Q62.48 72.01 58.06 72.96Q53.65 73.91 49.37 74.54L49.37 74.54Q40.98 75.71 35.05 75.71L35.05 75.71Q24.24 75.71 18.38 73.11L18.38 73.11Q16.19 72.12 14.80 68.16L14.80 68.16Q13.70 64.90 13.70 62.80Q13.70 60.69 14.06 60.47Q14.43 60.25 15.56 60.46Q16.70 60.66 18.53 61.13L18.53 61.13L22.93 62.30Q33.14 64.87 44.53 64.87L44.53 64.87Q52.92 64.87 58.74 63.37L58.74 63.37Q62.18 62.45 62.40 61.32L62.40 61.32Q62.55 60.33 56.98 58.86L56.98 58.86Q54.46 58.17 51.12 57.40L51.12 57.40Q34.97 53.48 31.64 52.34Q28.31 51.21 27.30 50.33Q26.29 49.45 25.64 48.39L25.64 48.39Q24.43 46.30 24.43 44.42Q24.43 42.53 24.63 41.50Q24.83 40.48 25.20 39.60L25.20 39.60Q25.96 37.81 27.14 37.15L27.14 37.15Q36.55 31.87 54.79 27.88L54.79 27.88Q71.01 24.29 81.48 24.29L81.48 24.29Q83.61 24.29 84.67 25.02L84.67 25.02Q86.50 26.38 86.28 27.92Q86.06 29.46 85.35 30.76Q84.63 32.06 83.57 33.10Q82.51 34.14 81.21 34.93Q79.91 35.72 78.52 36.23L78.52 36.23Q75.73 37.26 73.10 37.26Z"></path></svg>